<?xml version="1.0" encoding="UTF-8"?>
<svg width="155px" height="158px" viewBox="0 0 155 158" version="1.1" xmlns="http://www.w3.org/2000/svg" xmlns:xlink="http://www.w3.org/1999/xlink">
    <!-- Generator: Sketch 52.3 (67297) - http://www.bohemiancoding.com/sketch -->
    <title>Group 5</title>
    <desc>Created with Sketch.</desc>
    <g id="Page-1" stroke="none" stroke-width="1" fill="none" fill-rule="evenodd">
        <g id="Artboard" transform="translate(-644.000000, -1705.000000)">
            <g id="Group-5" transform="translate(644.000000, 1705.000000)">
                <path d="M44.2833801,157.143999 L44.3748814,158 L110.710084,158 L110.804853,157.143999 C110.804853,148.603815 95.9130105,141.683094 77.5408488,141.683094 C59.1784909,141.683094 44.2833801,148.603815 44.2833801,157.143999 L44.2833801,157.143999 Z M66.8809428,128.915785 L66.9005503,128.93892 C66.9005503,129.038071 66.9691763,135.284567 64.8613776,137.0164 C64.8613776,137.0164 75.57357,132.967745 89.945816,137.0164 C89.3870043,136.028197 88.4099007,136.381835 87.8184099,128.915785 L87.8086062,128.915785 L91.6810736,101.480776 C86.1909932,106.696105 69.763235,106.121031 63.3189264,101.480776 L66.8809428,128.915785 Z M13.4180178,45.7283186 C11.0978052,41.2500105 10.0128608,36.5800109 10.0161287,32.3264444 C10.0161287,28.7305778 10.7808185,25.4586035 12.1337311,22.8377191 C13.4964475,20.2036146 15.3820286,18.22721 17.8002783,16.9316404 C19.3459973,16.1053843 20.9897535,15.6525959 22.7217432,15.5104799 C22.417828,12.1955403 22.1956105,8.83102539 22.0583585,5.42024014 C18.9995994,5.66150692 15.9637157,6.4679329 13.1402458,7.96510898 C8.78086062,10.2819311 5.42799013,13.9174581 3.25483334,18.1710246 C1.06860492,22.4245911 0,27.2862821 0,32.3264444 C0,38.2920136 1.50323628,44.5418148 4.56199532,50.4379785 L12.3036622,65.3304188 C15.4114398,71.309208 19.7283422,76.1510689 24.6922899,79.5519391 C29.6431659,82.9461992 35.2639624,84.9126888 40.9631886,84.9159938 C42.8160907,84.9226039 44.6722608,84.7044722 46.4892159,84.264904 C44.1951466,81.3796176 42.0350615,78.2034891 40.0154962,74.7563486 C36.8913791,74.5547421 33.5025616,73.3616282 30.3032827,71.167092 C26.7739453,68.7577292 23.5158441,65.1585575 21.1564167,60.6141489 L13.4180178,45.7283186 Z M112.847294,68.2818056 C121.938606,50.8742417 127.742405,26.7475631 128.078999,0 L26.9373406,0 C27.2020409,19.849977 30.4274631,38.2589633 35.8129704,53.5447015 C41.4239632,69.4914446 49.374776,82.0141823 58.3941937,89.3083713 C64.4071388,94.1799774 70.8253041,96.7512864 77.498366,96.7578965 C84.1779638,96.7512864 90.5928612,94.1799774 96.6123421,89.3083713 C102.618751,84.4433753 108.164386,77.2549471 112.847294,68.2818056 L112.847294,68.2818056 Z M155,32.3264444 C154.996732,27.2862821 153.931395,22.4245911 151.751702,18.1710246 C149.57201,13.9174581 146.228943,10.2819311 141.856486,7.96510898 C139.046088,6.4679329 136.013472,5.66811697 132.961249,5.42024014 C132.827265,8.84094047 132.572368,12.1889303 132.265185,15.5104799 C134.010246,15.6525959 135.660538,16.1053843 137.20299,16.9250303 C139.624507,18.22721 141.500285,20.2036146 142.866269,22.8311091 C144.219182,25.4586035 144.983871,28.7305778 144.983871,32.3264444 C144.983871,36.5800109 143.905463,41.2500105 141.575446,45.7283186 L133.840315,60.6141489 C131.487424,65.1585575 128.226055,68.7577292 124.699985,71.167092 C121.500706,73.3616282 118.115157,74.5514371 115.004111,74.7563486 C112.987814,78.2034891 110.821193,81.3862277 108.530392,84.264904 C110.340811,84.7110823 112.183909,84.9226039 114.033543,84.9159938 C119.739306,84.9126888 125.360102,82.9461992 130.314246,79.5519391 C135.271658,76.1510689 139.595096,71.309208 142.699606,65.3304188 L150.44454,50.4379785 C153.500032,44.5418148 154.996732,38.2920136 155,32.3264444 L155,32.3264444 Z" id="Fill-192" fill="#E88253"></path>
                <g id="Oval-193-+-Star-1" transform="translate(56.000000, 12.000000)">
                    <ellipse id="Oval-193" fill="#FFD7BA" cx="23.2252532" cy="23.3762531" rx="23.2252532" ry="23.3762531"></ellipse>
                    <polygon id="Star-1" fill="#E88253" points="23.2252532 30.0551826 15.4244182 34.182988 16.9142451 25.4401558 10.603237 19.2484477 19.3248357 17.9728857 23.2252532 10.0183942 27.1256707 17.9728857 35.8472694 19.2484477 29.5362613 25.4401558 31.0260882 34.182988"></polygon>
                </g>
            </g>
        </g>
    </g>
</svg>