<?xml version="1.0" encoding="UTF-8"?>
<svg width="19px" height="24px" viewBox="0 0 19 24" version="1.1" xmlns="http://www.w3.org/2000/svg" xmlns:xlink="http://www.w3.org/1999/xlink">
    <!-- Generator: Sketch 52.3 (67297) - http://www.bohemiancoding.com/sketch -->
    <title>clock</title>
    <desc>Created with Sketch.</desc>
    <g id="Page-1" stroke="none" stroke-width="1" fill="none" fill-rule="evenodd">
        <g id="Artboard" transform="translate(-657.000000, -1000.000000)" fill="#FFFFFF">
            <g id="primary" transform="translate(629.000000, 988.000000)">
                <g id="clock" transform="translate(28.000000, 12.000000)">
                    <path d="M17.6217471,9.39130435 L18.7982054,7.97758843 C19.1074272,7.60213896 19.0551643,7.04006577 18.683336,6.72792522 L17.1252502,5.4204582 C16.7539663,5.10886817 16.1981292,5.16226787 15.8899963,5.53661632 L14.7777778,6.87436153 C15.8458995,7.56690616 16.8040515,8.41634684 17.6217471,9.39130435" id="Fill-295"></path>
                    <path d="M9.49976439,5.2173913 C4.26169986,5.2173913 0,9.42996894 0,14.6086957 C0,19.7874224 4.26169986,24 9.49976439,24 C14.7383001,24 19,19.7874224 19,14.6086957 C19,9.42996894 14.7383001,5.2173913 9.49976439,5.2173913 M9.49976439,22.5717391 C5.05805908,22.5717391 1.44428462,18.9996894 1.44428462,14.6086957 C1.44428462,10.2177019 5.05805908,6.6447205 9.49976439,6.6447205 C13.9419409,6.6447205 17.5557154,10.2177019 17.5557154,14.6086957 C17.5557154,18.9996894 13.9419409,22.5717391 9.49976439,22.5717391" id="Fill-297"></path>
                    <path d="M7.18771082,2.85344873 L7.84168476,2.85344873 L7.84168476,4.17391304 C8.21247975,4.13452354 8.5895676,4.11116465 8.97246426,4.11116465 C9.35536091,4.11116465 9.7319647,4.13452354 10.1027597,4.17391304 L10.1027597,2.85344873 L10.7557655,2.85344873 C11.2262782,2.85344873 11.6111111,2.48932485 11.6111111,2.04458991 L11.6111111,0.808400803 C11.6111111,0.363665857 11.2262782,0 10.7557655,0 L7.18771082,0 C6.71816625,0 6.33333333,0.363665857 6.33333333,0.808400803 L6.33333333,2.04458991 C6.33333333,2.48932485 6.71816625,2.85344873 7.18771082,2.85344873" id="Fill-299"></path>
                    <path d="M9.5,8.37728346 C9.5,8.37728346 13.0845229,7.93764954 14.7777778,10.4551802 L9.5,14.6086957 L9.5,8.37728346 Z" id="Fill-301"></path>
                </g>
            </g>
        </g>
    </g>
</svg>