<?xml version="1.0" encoding="UTF-8"?>
<svg width="40px" height="52px" viewBox="0 0 40 52" version="1.1" xmlns="http://www.w3.org/2000/svg" xmlns:xlink="http://www.w3.org/1999/xlink">
    <!-- Generator: Sketch 52.3 (67297) - http://www.bohemiancoding.com/sketch -->
    <title>clock counter</title>
    <desc>Created with Sketch.</desc>
    <g id="Page-1" stroke="none" stroke-width="1" fill="none" fill-rule="evenodd">
        <g id="Artboard" transform="translate(-112.000000, -215.000000)" fill="#E88253">
            <g id="Modulo-texto" transform="translate(72.000000, 181.000000)">
                <g id="clock-counter" transform="translate(40.000000, 34.000000)">
                    <path d="M36.3885735,18 L38.6176523,15.2903778 C39.2035462,14.5707663 39.1045219,13.4934594 38.4000051,12.89519 L35.4478425,10.3892116 C34.7443572,9.79199732 33.6911923,9.89434676 33.1073614,10.611848 L31,13.1758596 C33.0238096,14.5032368 34.8392555,16.1313314 36.3885735,18" id="Fill-295"></path>
                    <path d="M19.999504,12 C8.9719997,12 0,20.9712302 0,32 C0,43.0287698 8.9719997,52 19.999504,52 C31.0280003,52 40,43.0287698 40,32 C40,20.9712302 31.0280003,12 19.999504,12 M19.999504,48.9583333 C10.6485454,48.9583333 3.04059919,41.3511905 3.04059919,32 C3.04059919,22.6488095 10.6485454,15.0396825 19.999504,15.0396825 C29.3514546,15.0396825 36.9594008,22.6488095 36.9594008,32 C36.9594008,41.3511905 29.3514546,48.9583333 19.999504,48.9583333" id="Fill-297"></path>
                    <path d="M15.7807026,6.15274882 L17.1437219,6.15274882 L17.1437219,9 C17.9165367,8.91506639 18.7024672,8.86469878 19.5005044,8.86469878 C20.2985417,8.86469878 21.0834633,8.91506639 21.8562781,9 L21.8562781,6.15274882 L23.2172796,6.15274882 C24.1979272,6.15274882 25,5.36760672 25,4.40864699 L25,1.74311423 C25,0.784154505 24.1979272,0 23.2172796,0 L15.7807026,0 C14.8020728,0 14,0.784154505 14,1.74311423 L14,4.40864699 C14,5.36760672 14.8020728,6.15274882 15.7807026,6.15274882" id="Fill-299"></path>
                    <path d="M19,17.06587 C19,17.06587 26.4709004,16.0827997 30,21.7122778 L19,31 L19,17.06587 Z" id="Fill-301"></path>
                </g>
            </g>
        </g>
    </g>
</svg>