<?xml version="1.0" encoding="UTF-8"?>
<svg width="161px" height="160px" viewBox="0 0 161 160" version="1.1" xmlns="http://www.w3.org/2000/svg" xmlns:xlink="http://www.w3.org/1999/xlink">
    <!-- Generator: Sketch 52.3 (67297) - http://www.bohemiancoding.com/sketch -->
    <title>Group 7</title>
    <desc>Created with Sketch.</desc>
    <g id="Page-1" stroke="none" stroke-width="1" fill="none" fill-rule="evenodd">
        <g id="Artboard" transform="translate(-270.000000, -1608.000000)">
            <g id="Modulo-texto" transform="translate(270.000000, 1608.000000)">
                <g id="Group-4">
                    <g id="Group-11">
                        <g id="Oval-3-Copy-+-Page-1">
                            <g id="Group-7">
                                <circle id="Oval-3-Copy" fill="#E88253" cx="80.2317118" cy="80" r="80"></circle>
                                <g id="Group-6" transform="translate(60.000000, 47.000000)" fill="#FFFFFF">
                                    <polygon id="Fill-40" points="24.550936 0 20.3444335 7.71350086 16.3046305 0 10.8567488 0 17.5767488 12.7899074 14.6778325 18.1056059 5.44788177 0 0 0 11.8333005 23.3236341 11.4880788 23.9572693 17.8758621 24 30 0"></polygon>
                                    <polygon id="Fill-42" points="41 0 35.5337659 0 24 24 29.1246686 24"></polygon>
                                    <path d="M27.3537898,24 L10.6462102,24 C9.73643185,24 9,24.8946996 9,25.9985866 C9,27.1038869 9.73643185,28 10.6462102,28 L27.3537898,28 C28.2624047,28 29,27.1038869 29,25.9985866 C29,24.8946996 28.2624047,24 27.3537898,24 M27.3537898,26.9399293 L10.6462102,26.9399293 C10.2192426,26.9399293 9.87254959,26.5173145 9.87254959,25.9985866 C9.87254959,25.4826855 10.2192426,25.0600707 10.6462102,25.0600707 L27.3537898,25.0600707 C27.779594,25.0600707 28.1274504,25.4826855 28.1274504,25.9985866 C28.1274504,26.5173145 27.779594,26.9399293 27.3537898,26.9399293" id="Fill-44"></path>
                                    <path d="M28.8047829,28 L11.1927644,28 C9.982329,28 9,26.8806596 9,25.5 C9,24.1235327 9.982329,23 11.1927644,23 L28.8047829,23 C30.0139919,23 31,24.1235327 31,25.5 C31,26.8806596 30.0139919,28 28.8047829,28 L28.8047829,28 Z M11.1927644,24.0452767 C10.4875969,24.0452767 9.91610458,24.6978759 9.91610458,25.5 C9.91610458,26.3021241 10.4875969,26.9547233 11.1927644,26.9547233 L28.8047829,26.9547233 C29.5074976,26.9547233 30.082669,26.3021241 30.082669,25.5 C30.082669,24.6978759 29.5074976,24.0452767 28.8047829,24.0452767 L11.1927644,24.0452767 Z M28.8047829,26.9547233 L11.1927644,26.9547233 C10.4900496,26.9547233 9.91855733,26.3021241 9.91855733,25.5 C9.91855733,24.7006708 10.4900496,24.0480715 11.1927644,24.0480715 L28.8047829,24.0480715 C29.5062713,24.0480715 30.0777635,24.7006708 30.0777635,25.5 C30.0777635,26.3021241 29.5062713,26.9547233 28.8047829,26.9547233 L28.8047829,26.9547233 Z M11.1927644,25.0933482 C10.9965438,25.0933482 10.8358883,25.2764114 10.8358883,25.5 C10.8358883,25.7263835 10.9965438,25.9094466 11.1927644,25.9094466 L28.8047829,25.9094466 C29.0010034,25.9094466 29.1604326,25.7263835 29.1604326,25.5 C29.1604326,25.2764114 29.0010034,25.0933482 28.8047829,25.0933482 L11.1927644,25.0933482 Z" id="Fill-46"></path>
                                    <path d="M23,29.0021786 C23,29.5533769 22.4053991,30 21.6700023,30 L19.3311613,30 C18.5957645,30 18,29.5533769 18,29.0021786 C18,28.4488017 18.5957645,28 19.3311613,28 L21.6700023,28 C22.4053991,28 23,28.4488017 23,29.0021786" id="Fill-48"></path>
                                    <path d="M19.4994089,29 C9.28146468,29 1,37.2835644 1,47.5011822 C1,57.7164356 9.28146468,66 19.4994089,66 C29.7173531,66 38,57.7164356 38,47.5011822 C38,37.2835644 29.7173531,29 19.4994089,29 M18.3443781,62.777366 C18.1800492,62.7844591 18.0216315,62.8069206 17.8561204,62.8069206 C10.1976867,62.8069206 3.98865706,56.0743817 3.98865706,47.7730845 C3.98865706,39.4682408 10.1976867,32.7380663 17.8561204,32.7380663 C18.0216315,32.7380663 18.1800492,32.7581635 18.3443781,32.7652566 C10.912931,33.0466164 4.96517238,39.649115 4.96517238,47.7730845 C4.96517238,55.8970541 10.912931,62.4995527 18.3443781,62.777366" id="Fill-50"></path>
                                </g>
                            </g>
                        </g>
                    </g>
                </g>
            </g>
        </g>
    </g>
</svg>